<svg id="visual" viewBox="0 0 1366 768" width="1366" height="768" xmlns="http://www.w3.org/2000/svg" xmlns:xlink="http://www.w3.org/1999/xlink" version="1.1"><path d="M358 0L380.8 18.3C403.7 36.7 449.3 73.3 482.3 109.8C515.3 146.3 535.7 182.7 530.5 219.2C525.3 255.7 494.7 292.3 471.3 329C448 365.7 432 402.3 415.2 439C398.3 475.7 380.7 512.3 375 548.8C369.3 585.3 375.7 621.7 398.5 658.2C421.3 694.7 460.7 731.3 480.3 749.7L500 768L0 768L0 749.7C0 731.3 0 694.7 0 658.2C0 621.7 0 585.3 0 548.8C0 512.3 0 475.7 0 439C0 402.3 0 365.7 0 329C0 292.3 0 255.7 0 219.2C0 182.7 0 146.3 0 109.8C0 73.3 0 36.7 0 18.3L0 0Z" fill="#fa7268"></path><path d="M469 0L456.3 18.3C443.7 36.7 418.3 73.3 393.8 109.8C369.3 146.3 345.7 182.7 353 219.2C360.3 255.7 398.7 292.3 413.5 329C428.3 365.7 419.7 402.3 408.2 439C396.7 475.7 382.3 512.3 389.3 548.8C396.3 585.3 424.7 621.7 427.7 658.2C430.7 694.7 408.3 731.3 397.2 749.7L386 768L0 768L0 749.7C0 731.3 0 694.7 0 658.2C0 621.7 0 585.3 0 548.8C0 512.3 0 475.7 0 439C0 402.3 0 365.7 0 329C0 292.3 0 255.7 0 219.2C0 182.7 0 146.3 0 109.8C0 73.3 0 36.7 0 18.3L0 0Z" fill="#ef5f67"></path><path d="M264 0L267.3 18.3C270.7 36.7 277.3 73.3 267.5 109.8C257.7 146.3 231.3 182.7 245.2 219.2C259 255.7 313 292.3 339 329C365 365.7 363 402.3 338.5 439C314 475.7 267 512.3 268.3 548.8C269.7 585.3 319.3 621.7 323.7 658.2C328 694.7 287 731.3 266.5 749.7L246 768L0 768L0 749.7C0 731.3 0 694.7 0 658.2C0 621.7 0 585.3 0 548.8C0 512.3 0 475.7 0 439C0 402.3 0 365.7 0 329C0 292.3 0 255.7 0 219.2C0 182.7 0 146.3 0 109.8C0 73.3 0 36.7 0 18.3L0 0Z" fill="#e34c67"></path><path d="M219 0L222.7 18.3C226.3 36.7 233.7 73.3 220.2 109.8C206.7 146.3 172.3 182.7 171.8 219.2C171.3 255.7 204.7 292.3 209 329C213.3 365.7 188.7 402.3 191.3 439C194 475.7 224 512.3 232.7 548.8C241.3 585.3 228.7 621.7 221.3 658.2C214 694.7 212 731.3 211 749.7L210 768L0 768L0 749.7C0 731.3 0 694.7 0 658.2C0 621.7 0 585.3 0 548.8C0 512.3 0 475.7 0 439C0 402.3 0 365.7 0 329C0 292.3 0 255.7 0 219.2C0 182.7 0 146.3 0 109.8C0 73.3 0 36.7 0 18.3L0 0Z" fill="#d53867"></path><path d="M162 0L159.3 18.3C156.7 36.7 151.3 73.3 150 109.8C148.7 146.3 151.3 182.7 152.3 219.2C153.3 255.7 152.7 292.3 148.7 329C144.7 365.7 137.3 402.3 127.3 439C117.3 475.7 104.7 512.3 96.3 548.8C88 585.3 84 621.7 80.5 658.2C77 694.7 74 731.3 72.5 749.7L71 768L0 768L0 749.7C0 731.3 0 694.7 0 658.2C0 621.7 0 585.3 0 548.8C0 512.3 0 475.7 0 439C0 402.3 0 365.7 0 329C0 292.3 0 255.7 0 219.2C0 182.7 0 146.3 0 109.8C0 73.3 0 36.7 0 18.3L0 0Z" fill="#c62368"></path></svg>