<?xml version="1.0" encoding="UTF-8" standalone="no"?>
<svg
   id="visual"
   viewBox="0 0 1366 1536"
   width="1366"
   height="1536"
   version="1.1"
   sodipodi:docname="seamlessWaves2.svg"
   inkscape:version="1.4 (86a8ad7, 2024-10-11)"
   xmlns:inkscape="http://www.inkscape.org/namespaces/inkscape"
   xmlns:sodipodi="http://sodipodi.sourceforge.net/DTD/sodipodi-0.dtd"
   xmlns="http://www.w3.org/2000/svg"
   xmlns:svg="http://www.w3.org/2000/svg">
  <defs
     id="defs5" />
  <sodipodi:namedview
     id="namedview5"
     pagecolor="#ffffff"
     bordercolor="#000000"
     borderopacity="0.25"
     inkscape:showpageshadow="2"
     inkscape:pageopacity="0.0"
     inkscape:pagecheckerboard="0"
     inkscape:deskcolor="#d1d1d1"
     inkscape:zoom="0.5"
     inkscape:cx="481"
     inkscape:cy="863"
     inkscape:window-width="2560"
     inkscape:window-height="1369"
     inkscape:window-x="1912"
     inkscape:window-y="-8"
     inkscape:window-maximized="1"
     inkscape:current-layer="visual" />
  <path
     d="m 358,0 22.8,18.3 c 22.9,18.4 68.5,55 101.5,91.5 33,36.5 53.4,72.9 48.2,109.4 -5.2,36.5 -35.8,73.1 -59.2,109.8 -23.3,36.7 -39.3,73.3 -56.1,110 -16.9,36.7 -34.5,73.3 -40.2,109.8 -5.7,36.5 0.7,72.9 23.5,109.4 22.8,36.5 40.44625,65.64188 47.8,91.5 l 5.20431,18.3 H 0 V 749.7 658.2 548.8 439 329 219.2 109.8 18.3 0 Z"
     fill="#fa7268"
     id="path1"
     sodipodi:nodetypes="ccssccssscccccccccccc" />
  <path
     d="m 469,0 -12.7,18.3 c -12.6,18.4 -38,55 -62.5,91.5 -24.5,36.5 -48.1,72.9 -40.8,109.4 7.3,36.5 45.7,73.1 60.5,109.8 14.8,36.7 6.2,73.3 -5.3,110 -11.5,36.7 -25.9,73.3 -18.9,109.8 7,36.5 35.4,72.9 38.4,109.4 3,36.5 -19.4,73.1 -30.5,91.5 L 386,768 H 0 V 749.7 658.2 548.8 439 329 219.2 109.8 18.3 0 Z"
     fill="#ef5f67"
     id="path2"
     sodipodi:nodetypes="ccssssssccccccccccccc" />
  <path
     d="m 264,0 3.3,18.3 c 3.4,18.4 10,55 0.2,91.5 -9.8,36.5 -36.2,72.9 -22.3,109.4 13.8,36.5 67.8,73.1 93.8,109.8 26,36.7 24,73.3 -0.5,110 -24.5,36.7 -71.5,73.3 -70.2,109.8 1.4,36.5 51,72.9 55.4,109.4 4.3,36.5 -36.7,73.1 -57.2,91.5 L 246,768 H 0 V 749.7 658.2 548.8 439 329 219.2 109.8 18.3 0 Z"
     fill="#e34c67"
     id="path3"
     sodipodi:nodetypes="ccscssccccccccccccccc" />
  <path
     d="m 219,0 3.7,18.3 c 3.6,18.4 11,55 -2.5,91.5 -13.5,36.5 -47.9,72.9 -48.4,109.4 -0.5,36.5 32.9,73.1 37.2,109.8 4.3,36.7 -20.3,73.3 -17.7,110 2.7,36.7 32.7,73.3 41.4,109.8 8.6,36.5 -4,72.9 -11.4,109.4 -7.3,36.5 -9.3,73.1 -10.3,91.5 L 210,768 H 0 V 749.7 658.2 548.8 439 329 219.2 109.8 18.3 0 Z"
     fill="#d53867"
     id="path4"
     sodipodi:nodetypes="ccssscccccccccccccccc" />
  <path
     d="m 162,0 -2.7,18.3 c -2.6,18.4 -8,55 -9.3,91.5 -1.3,36.5 1.3,72.9 2.3,109.4 1,36.5 0.4,73.1 -3.6,109.8 -4,36.7 -11.4,73.3 -21.4,110 -10,36.7 -22.6,73.3 -31,109.8 C 88,585.3 84,621.7 80.5,658.2 77,694.7 74,731.3 72.5,749.7 L 71,768 H 0 V 749.7 658.2 548.8 439 329 219.2 109.8 18.3 0 Z"
     fill="#c62368"
     id="path5"
     sodipodi:nodetypes="ccsssscsccccccccccccc" />
  <path
     d="m 358.00134,1536 22.8,-18.3 c 22.9,-18.4 68.5,-55 101.5,-91.5 33,-36.5 53.4,-72.9 48.2,-109.4 -5.2,-36.5 -35.8,-73.1 -59.2,-109.8 -23.3,-36.7 -39.3,-73.3 -56.1,-110 -16.9,-36.7 -34.5,-73.3 -40.2,-109.80004 -5.7,-36.5 0.7,-72.9 23.5,-109.4 22.8,-36.5 40.44625,-65.64188 47.8,-91.5 l 5.20431,-18.3 H 0.00133993 v 18.3 91.5 109.4 V 1097 v 110 109.8 109.4 91.5 18.3 z"
     fill="#fa7268"
     id="path1-0"
     sodipodi:nodetypes="ccssccssscccccccccccc" />
  <path
     d="m 469.00134,1536 -12.7,-18.3 c -12.6,-18.4 -38,-55 -62.5,-91.5 -24.5,-36.5 -48.1,-72.9 -40.8,-109.4 7.3,-36.5 45.7,-73.1 60.5,-109.8 14.8,-36.7 6.2,-73.3 -5.3,-110 -11.5,-36.7 -25.9,-73.3 -18.9,-109.80004 7,-36.5 35.4,-72.9 38.4,-109.4 3,-36.5 -19.4,-73.1 -30.5,-91.5 l -11.2,-18.3 H 0.00133993 v 18.3 91.5 109.4 V 1097 v 110 109.8 109.4 91.5 18.3 z"
     fill="#ef5f67"
     id="path2-9"
     sodipodi:nodetypes="ccssssssccccccccccccc" />
  <path
     d="m 264.00134,1536 3.3,-18.3 c 3.4,-18.4 10,-55 0.2,-91.5 -9.8,-36.5 -36.2,-72.9 -22.3,-109.4 13.8,-36.5 67.8,-73.1 93.8,-109.8 26,-36.7 24,-73.3 -0.5,-110 -24.5,-36.7 -71.5,-73.3 -70.2,-109.80004 1.4,-36.5 51,-72.9 55.4,-109.4 4.3,-36.5 -36.7,-73.1 -57.2,-91.5 l -20.5,-18.3 H 0.00133993 v 18.3 91.5 109.4 V 1097 v 110 109.8 109.4 91.5 18.3 z"
     fill="#e34c67"
     id="path3-4"
     sodipodi:nodetypes="ccscssccccccccccccccc" />
  <path
     d="m 219.00134,1536 3.7,-18.3 c 3.6,-18.4 11,-55 -2.5,-91.5 -13.5,-36.5 -47.9,-72.9 -48.4,-109.4 -0.5,-36.5 32.9,-73.1 37.2,-109.8 4.3,-36.7 -20.3,-73.3 -17.7,-110 2.7,-36.7 32.7,-73.3 41.4,-109.80004 8.6,-36.5 -4,-72.9 -11.4,-109.4 -7.3,-36.5 -9.3,-73.1 -10.3,-91.5 l -1,-18.3 H 0.00133993 v 18.3 91.5 109.4 V 1097 v 110 109.8 109.4 91.5 18.3 z"
     fill="#d53867"
     id="path4-8"
     sodipodi:nodetypes="ccssscccccccccccccccc" />
  <path
     d="m 162.00134,1536 -2.7,-18.3 c -2.6,-18.4 -8,-55 -9.3,-91.5 -1.3,-36.5 1.3,-72.9 2.3,-109.4 1,-36.5 0.4,-73.1 -3.6,-109.8 -4,-36.7 -11.4,-73.3 -21.4,-110 -10,-36.7 -22.6,-73.3 -30.999999,-109.80004 -8.3,-36.5 -12.3,-72.9 -15.8,-109.4 -3.5,-36.5 -6.5,-73.1 -8,-91.5 l -1.5,-18.3 H 0.00133993 v 18.3 91.5 109.4 V 1097 v 110 109.8 109.4 91.5 18.3 z"
     fill="#c62368"
     id="path5-8"
     sodipodi:nodetypes="ccsssscsccccccccccccc" />
</svg>
